<svg version="1.2" xmlns="http://www.w3.org/2000/svg" viewBox="0 0 613 640" width="613" height="640">
	<title>fazejaeger_A_simple_iconic_football_icon_inside_a_</title>
	<style>
		.s0 { fill: #1e242d } 
		.s1 { fill: #fa9144 } 
		.s2 { fill: #fefcf4 } 
	</style>
	<g id="Background">
		<path id="Path 0" class="s0" d="m40.5 2c-3.9 1-9.9 3.2-13.5 5-4 2-8.8 5.6-12.5 9.4-3.3 3.4-7.2 8.4-8.7 11.1-1.5 2.8-3.4 7.7-4.2 11-1.4 5.4-1.6 34.6-1.6 281.5 0 251.2 0.1 276 1.6 281 0.9 3 2.9 8 4.4 11 1.5 3 4.7 7.7 7.1 10.4 2.4 2.7 7.1 6.7 10.4 8.8 3.3 2.2 9.5 5 13.8 6.3l7.7 2.5h522.5c12.4-4 18-6.3 20.5-7.7 2.5-1.5 7-5.2 10-8.2 3-3.1 6.9-8.3 8.7-11.6 1.7-3.3 3.8-8.7 4.7-12 1.4-5.4 1.6-34.6 1.6-281l-0.1-275c-3.8-11.6-6.4-17.2-8.2-19.9-1.8-2.7-5.7-7.2-8.7-10-3-2.8-8-6.4-11-7.9-3-1.5-8.9-3.6-13-4.7-7.4-1.9-12.1-2-266-1.9-245.2 0.1-258.9 0.2-265.5 1.9z"/>
		<path id="Path 1" class="s1" d="m386 443c-1.9 1.7-6 4.5-9 6.2-3 1.8-8.6 4.6-12.5 6.3-3.9 1.8-10.6 4.3-15 5.8-4.4 1.5-11.1 3.4-15 4.3-3.9 0.9-10.1 1.8-14 2.1-3.9 0.3-10.6 0.6-15 0.6-4.4 0-9.6-0.2-11.5-0.3-1.9-0.1-6.6-0.7-10.5-1.2-3.9-0.6-12.2-2.6-18.5-4.5-6.3-1.9-16.1-5.7-21.8-8.4-5.6-2.7-10.2-5.3-10.2-5.9 0-0.6-0.7-1-1.5-1-0.8 0-1.5-0.3-1.5-0.7 0-0.5-1.9-1.8-4.2-3.1-2.4-1.2-4.4-2.1-4.5-2-0.2 0.2-0.4 4.6-0.5 9.8-0.1 5.2-0.1 44 0 86.3l0.2 76.7h169c0.4-133.7 0.3-172.8 0-173.2-0.4-0.4-2.2 0.6-4 2.2z"/>
		<path id="Path 2" class="s2" d="m415 525.5v89.5c153.3-0.5 153.5-0.5 157.5-2.7 2.2-1.2 5.6-3.9 7.6-6 2-2.1 4.5-5.4 5.5-7.3 1.8-3.3 1.9-7.6 2.1-83.3l0.2-79.7h-172.9z"/>
		<path id="Path 3" class="s2" d="m25 514.8c0 77 0.1 78.8 2.1 83.2 1.1 2.5 3.7 6.2 5.7 8.4 2 2.1 5.9 4.9 8.7 6.2l5 2.4h149.5v-179h-171z"/>
		<path id="Path 4" class="s2" d="m263.9 380.3l-13.7 13.2 13.3 43.9 42 12.8c32.6-9.7 42.1-12.6 42.2-12.6 0.1-0.1 3.2-9.8 6.8-21.6 3.6-11.8 6.5-21.9 6.4-22.5-0.1-0.6-6.1-6.8-13.3-13.8l-13.1-12.9c-20.5 7.1-27.5 9.2-28.7 9.2-1.3 0-8-2-15-4.5-7.1-2.5-12.9-4.5-13-4.5-0.2 0.1-6.4 6-13.9 13.3z"/>
		<path id="Path 5" class="s2" d="m362.2 280.8c-7.3 7-13.2 13.4-13.2 14.2 0 0.8 1.9 7.4 4.1 14.5 3.6 11.3 4 13.5 3.2 17-0.6 2.2-2.5 9.1-4.4 15.4l-3.4 11.3 27 25.9c22.5-8 31.7-11.2 35-12.3 3.3-1.2 6.3-2.4 6.7-2.7 0.3-0.3 3.4-9.8 6.8-21.1l6.1-20.5-12.6-40.5c-31-10.3-40.4-13.4-41-13.6-0.6-0.2-7 5.4-14.3 12.4z"/>
		<path id="Path 6" class="s2" d="m215 275.1c-11.3 3.8-20.7 7.3-21 7.8-0.3 0.5-3.1 9.6-6.4 20.2l-5.8 19.4c9.1 30.9 12.1 40.4 12.7 41.1 0.6 0.7 10.2 4.4 21.5 8.4l20.5 7.1c7-6.8 12.9-12.6 17.8-17.2 4.8-4.6 8.7-8.9 8.7-9.4 0-0.6-2-7.5-4.5-15.5-2.4-8-4.2-14.7-4-15 0.2-0.3 2.2-6.6 4.5-14l4.1-13.5c-20.6-20.5-26.8-26.5-27.1-26.4-0.3 0-9.7 3.2-21 7z"/>
		<path id="Path 7" class="s1" d="m418 233.3c0.1 0.6 2.1 3.9 4.7 7.2 2.5 3.3 4.9 7.2 5.4 8.7 0.5 1.6 1.2 2.8 1.6 2.8 0.5-0.1 2.8 4.1 5.2 9.2 2.4 5.1 5.2 11.8 6.3 14.8 1 3 3 10.2 4.4 16 2.1 8.6 2.6 13.3 2.7 26 0.1 8.5-0.4 20-1.1 25.5-0.7 5.5-2.9 15.2-4.8 21.5-2 6.3-5.6 15.6-8.1 20.5-2.4 4.9-6.7 12.3-9.4 16.2-2.7 4-4.9 7.5-4.9 7.8 0 0.3 37.6 0.5 83.5 0.5h83.5v-178c-151.5 0-169 0.3-169 1.2z"/>
		<path id="Path 8" class="s1" d="m25.8 317.3c-0.2 46.8-0.2 86.9-0.1 88.9l0.3 3.8h166c-7.2-10.5-11.2-17.3-13.5-22-2.3-4.7-5.5-11.9-7-16-1.5-4.1-3.8-12.2-5.2-18-1.9-8-2.6-14.3-3-26.5-0.4-13.3-0.2-18 1.5-28 1.2-6.6 3.5-16.3 5.2-21.5 1.7-5.2 4.6-12.6 6.4-16.5 1.7-3.9 5.6-10.6 8.5-15 3-4.4 5.7-8.2 6.1-8.5 0.4-0.3 1.2-1.5 1.9-2.8 0.6-1.2 1.1-2.4 1.1-2.7 0-0.3-37.8-0.5-84-0.5h-83.9z"/>
		<path id="Path 9" class="s2" d="m285.4 204.2c-10.9 3.3-20.4 6.5-21 7.1-0.7 0.7-3.7 9.5-6.9 19.7-3.1 10.2-6 19.4-6.5 20.5-0.7 1.7 1.2 4.1 12.6 15.5l13.4 13.5 29.5-9.3 27.2 9.3c21.2-20.1 27.4-26.3 27.3-26.7 0-0.5-2.9-10.1-6.5-21.5-3.6-11.5-6.9-21.1-7.3-21.4-0.4-0.3-7.9-2.7-16.7-5.2-8.8-2.6-18.1-5.3-20.6-6.1-4.4-1.3-5.1-1.1-24.5 4.6z"/>
		<path id="Path 10" class="s2" d="m415.5 25.6c-0.4 0.4-0.8 41.4-0.7 91.1l0.2 90.3h173c0-146.9-0.2-159.2-1.5-163-0.8-2.5-3-6.3-4.8-8.5-1.9-2.2-5.8-5.3-8.8-7l-5.4-3c-117.1-0.4-151.5-0.2-152 0.1z"/>
		<path id="Path 11" class="s1" d="m220.8 115.2c0.1 58.7 0.5 90 1.2 90.3 0.6 0.3 3.6-1.2 6.7-3.2 3.2-2 10.3-5.8 15.8-8.5 5.5-2.6 15.4-6.3 22-8.1 6.6-1.9 16.1-4 21-4.7 5.3-0.7 14.2-1 21.5-0.7 6.9 0.3 14.5 0.8 17 1.1 2.5 0.2 8.4 1.4 13.2 2.5 4.9 1.2 13 3.7 18 5.7 5.1 1.9 13.1 5.8 17.8 8.5 4.7 2.8 10 5.9 11.7 7l3.3 1.9c0-12.8 0-53.4 0-98.5-0.1-45.1-0.2-82.1-0.3-82.2-0.1 0-38.2-0.3-84.7-0.5l-84.4-0.4z"/>
		<path id="Path 12" class="s2" d="m46.5 25.9c-1.6 0.4-4.8 1.6-6.9 2.7-2.2 1-5.8 4-8 6.5-2.3 2.5-4.7 6.3-5.3 8.5-1 2.9-1.3 23.3-1.3 83.7v79.7h171v-182c-113.5 0.2-147.8 0.5-149.5 0.9z"/>
	</g>
</svg>